<svg xmlns="http://www.w3.org/2000/svg" viewBox="0 0 508 289.13"><defs><style>.cls-1{fill:#fff;}.cls-2{fill:#4d4554;}</style></defs><g id="Layer_2" data-name="Layer 2"><g id="Layer_1-2" data-name="Layer 1"><path class="cls-1" d="M491.9,64.55c-10.86-17.68-28.35-31.8-52-42l-.05,0,0,0a196.89,196.89,0,0,0-39.38-11.72,219.45,219.45,0,0,0-90,1.67,180.48,180.48,0,0,0-45.82,16.78,108.87,108.87,0,0,0-14.87,9.58,26.39,26.39,0,0,0,.65-5.92c0-8.73-3.07-16.2-8.89-21.61a39.49,39.49,0,0,0-16.29-9A59,59,0,0,0,209.22,0C195.36,0,183,3.8,172.54,11.28a69,69,0,0,0-23.11,28.57l0,.07,0,.08-.05.12,0,.08,0,.08a75.88,75.88,0,0,0-5.75,28.6,93.76,93.76,0,0,0,5,30c1.89,5.61,4,11.17,6.17,16.62a37.59,37.59,0,0,0-3.48-3.29c-7.72-6.46-18.75-9.73-32.79-9.73a102.42,102.42,0,0,0-37.62,7.44,137.91,137.91,0,0,0-33.7,19.13A132.75,132.75,0,0,0,21,155.59l-.05.06-.05.07A118.81,118.81,0,0,0,5.34,185.41,93.36,93.36,0,0,0,0,215.84a70.89,70.89,0,0,0,10,37C16.76,264,26.74,273,39.7,279.59c12.54,6.33,28,9.54,45.89,9.54a155.62,155.62,0,0,0,51.8-8.52,137.7,137.7,0,0,0,43-24.24c.68-.57,1.34-1.14,2-1.72-.06.72-.08,1.45-.08,2.19a24.53,24.53,0,0,0,12.87,22,49.55,49.55,0,0,0,17.33,5.73,89.93,89.93,0,0,0,11.86,1.08,76.28,76.28,0,0,0,19.52-2.52,100.15,100.15,0,0,0,17.49-6.45l.09,0,.08,0a89.42,89.42,0,0,0,15.53-9.91c1.95-1.56,3.9-3.14,5.81-4.74.92.31,1.83.6,2.74.88,3.44,1,6.72,1.91,9.76,2.6l.05,0h.06a206.37,206.37,0,0,0,22,3.56,216.75,216.75,0,0,0,22.61,1.18,210,210,0,0,0,39.37-3.72,165.72,165.72,0,0,0,36.71-11.4h.05a157,157,0,0,0,47.94-33.75,163.13,163.13,0,0,0,32.06-47.26A131.43,131.43,0,0,0,508,120.6,105.88,105.88,0,0,0,491.9,64.55ZM225.56,130.19a47.37,47.37,0,0,0,21.54,16.25A68.33,68.33,0,0,0,271.66,151a65.49,65.49,0,0,0,12.28-1.2c3.65-.71,7.18-1.55,10.49-2.5l.11,0,.1,0,.16-.05.1,0,.09,0a16.25,16.25,0,0,0,11.49-15.5A14.48,14.48,0,0,0,291.84,117a15.08,15.08,0,0,0-5.79,1.17,37.76,37.76,0,0,1-11.55,2A23.06,23.06,0,0,1,263,117.42a9,9,0,0,1-4.48-5.56l0-.06,0,0a13.48,13.48,0,0,1-.63-2.78,38.43,38.43,0,0,1-.23-4.14,45.76,45.76,0,0,1,5.05-20c3.55-7.28,7.49-13,11.71-17.11,9-8.45,21-15.32,35.79-20.42a144.26,144.26,0,0,1,47.3-7.91,185.19,185.19,0,0,1,34.8,3.33,66,66,0,0,0-6.54,3,110.62,110.62,0,0,0-32.45,25.72,227.1,227.1,0,0,0-25.4,35.47c-7.4,12.66-14.5,25.84-21.11,39.16q-5.21,10.52-10.21,20.62c-6.12-6.81-15.44-10.26-27.71-10.26a49.52,49.52,0,0,0-10.38,1.1,36.16,36.16,0,0,0-11,4.38c-9.86,6-16.67,14.6-19.73,25a45,45,0,0,0-1.86,13.2c0,11.87,4.19,22.67,12.46,32.1a101.83,101.83,0,0,0,10.06,10q-3.21,2.72-6.65,5.15a28.28,28.28,0,0,1-17,5.33,31.57,31.57,0,0,1-7.29-1.08,7,7,0,0,1-1.86-1.2A14.65,14.65,0,0,0,200.7,235l-.4,0a116,116,0,0,0,9.79-16.23,107,107,0,0,0,10.92-48,120.5,120.5,0,0,0-14.14-56.5c-3-6-6.31-12.34-9.78-18.75a125.89,125.89,0,0,1-8-17.88,48.82,48.82,0,0,1-2.82-16.3A36.15,36.15,0,0,1,190.94,44a18.38,18.38,0,0,1,7.27-7,20.87,20.87,0,0,1,10.38-3,6.82,6.82,0,0,1,2.29.32,5.12,5.12,0,0,1,.08.61l-1.19,7.93L208.69,50l6.45,3.26,2.59,1.3a19,19,0,0,0,8.83,1.82,24.59,24.59,0,0,0,6.38-.86c-1,1.3-1.95,2.62-2.86,4A81.65,81.65,0,0,0,220.53,79,71.68,71.68,0,0,0,217,101.67C217,112.91,219.86,122.5,225.56,130.19Zm-61.68,7.44c1.09,2.93,2.08,5.81,3,8.62l0,.07,0,.08,0,.11,0,.06,0,.06a42.23,42.23,0,0,1,2.24,11.25c.3,4.84.45,9.92.45,15.07a80.21,80.21,0,0,1-23.39,57.18,83.53,83.53,0,0,1-27,18.07C108.84,252.59,97,254.82,84,254.82c-11,0-19.89-1.8-26.37-5.37A32.78,32.78,0,0,1,44,236.22a40.09,40.09,0,0,1-4.67-19.12A63.47,63.47,0,0,1,43,196.71a78.54,78.54,0,0,1,11-20.9l0,0,0,0A110,110,0,0,1,73,155.63,100.92,100.92,0,0,1,96.65,140.8a59.24,59.24,0,0,1,24.26-5.26c5.69,0,7.28,1.25,7.29,1.26a3.24,3.24,0,0,1,1.1,2.72c0,2.69-1.07,7.38-6.17,14.5-4,5.55-9.84,10.87-17.24,15.79a107.25,107.25,0,0,1-24.7,12.29,58.43,58.43,0,0,1-18.95,3.49c-.85,0-1.69,0-2.52-.08a16.44,16.44,0,0,0-2-.12,14.84,14.84,0,0,0-8.56,2.67A15.12,15.12,0,0,0,42.82,199,15.39,15.39,0,0,0,54.5,215.88l.24.06.25,0,.39.08.23,0,.24,0c1.77.25,3.43.44,4.94.56s3.32.21,5.25.21a96.51,96.51,0,0,0,31.17-5.32,122.83,122.83,0,0,0,28.66-14.24,101.58,101.58,0,0,0,23.25-21.25,67.71,67.71,0,0,0,11-18.24,50.65,50.65,0,0,0,3.8-18.34C163.93,138.88,163.91,138.25,163.88,137.63Zm119.79,54.94c-4.38,8.39-8.83,16.07-13.26,22.91q-.69-.82-1.35-1.68a16.06,16.06,0,0,1-3.27-10.26,25.68,25.68,0,0,1,1.25-7.77l0-.08,0-.08,0-.15,0-.11,0-.11a7.27,7.27,0,0,1,2.93-4,10.27,10.27,0,0,1,4.42-2A14.71,14.71,0,0,0,283.67,192.57Zm150.75-132c.07-.19.14-.39.2-.59,8,5.72,14,12.35,18,19.79a75.75,75.75,0,0,1,9.07,36.13,108,108,0,0,1-8.29,40.48,143.85,143.85,0,0,1-22.84,38.23,106.69,106.69,0,0,1-31.77,26.24A128.81,128.81,0,0,1,368,232a160.68,160.68,0,0,1-36.68,4.2,135.21,135.21,0,0,1-22.94-1.95l1.36-2a258,258,0,0,0,22.4-38.2c6-12.69,12-25.71,17.67-38.69,5.51-12.55,11.59-24.91,18.07-36.76A196.78,196.78,0,0,1,390.2,86.13C399.07,75.7,407.49,70,413.89,70h1.44l.4.1.41.1a15.83,15.83,0,0,0,3.92.49A15.27,15.27,0,0,0,434.42,60.54Z"/><path class="cls-2" d="M211,170.74a110.61,110.61,0,0,0-13-51.93c-3-6-6.24-12.21-9.68-18.57a134.27,134.27,0,0,1-8.57-19.3,58.5,58.5,0,0,1-3.4-19.63,46.14,46.14,0,0,1,5.82-22.07,28.21,28.21,0,0,1,11.09-10.89A30.74,30.74,0,0,1,208.59,24c3.87,0,6.89,1,9.21,3,2.09,1.81,3.14,4.6,3.18,8.51l-1.33,8.86,2.59,1.31a9.39,9.39,0,0,0,4.32.74,15.32,15.32,0,0,0,8.92-2.93c2.22-1.55,4.86-4.63,4.86-10.53s-1.92-10.77-5.7-14.29a29.64,29.64,0,0,0-12.2-6.75A48.85,48.85,0,0,0,209.22,10c-11.74,0-22.12,3.17-30.87,9.42a59.13,59.13,0,0,0-19.78,24.49l0,.13a66,66,0,0,0-5,24.84A83.82,83.82,0,0,0,158,95.7c2.88,8.52,6.16,16.92,9.76,25a211.49,211.49,0,0,1,8.67,22.59l0,.11a52.3,52.3,0,0,1,2.79,13.92c.3,5,.46,10.32.46,15.68a90.22,90.22,0,0,1-26.28,64.21,93.23,93.23,0,0,1-30.25,20.25c-11.65,4.92-24.81,7.41-39.13,7.41-12.71,0-23.21-2.22-31.19-6.6a42.64,42.64,0,0,1-17.63-17.3,50,50,0,0,1-5.84-23.82,73.49,73.49,0,0,1,4.2-23.62A88.91,88.91,0,0,1,46,169.92a119.7,119.7,0,0,1,20.6-22,111.22,111.22,0,0,1,26-16.29,69.25,69.25,0,0,1,28.33-6.12c6.67,0,11.46,1.37,14.25,4.08a13.15,13.15,0,0,1,4.14,9.9c0,6-2.72,12.9-8.06,20.35-4.75,6.53-11.41,12.67-19.8,18.27a117.81,117.81,0,0,1-27,13.42,65.79,65.79,0,0,1-25.76,3.91,5,5,0,0,0-3.78.79,5.16,5.16,0,0,0-2.15,3.83,5.36,5.36,0,0,0,4.12,6.07l.39.08c1.56.22,3,.39,4.32.5s2.8.17,4.45.17A86.4,86.4,0,0,0,94,202.12,112.24,112.24,0,0,0,120.3,189a91.69,91.69,0,0,0,21-19.22,58,58,0,0,0,9.47-15.6,40.7,40.7,0,0,0,3.12-14.7,24.58,24.58,0,0,0-9.17-19.63c-5.87-4.9-14.74-7.39-26.37-7.39a92.59,92.59,0,0,0-33.95,6.74A128,128,0,0,0,53.18,137,123,123,0,0,0,29,161.49a108.78,108.78,0,0,0-14.24,27.18A83.33,83.33,0,0,0,10,215.84a61,61,0,0,0,8.61,31.86c5.74,9.55,14.35,17.28,25.6,23s25.05,8.47,41.38,8.47a145.47,145.47,0,0,0,48.48-7.95,127.82,127.82,0,0,0,39.87-22.47,106.53,106.53,0,0,0,27.19-34.4A97.09,97.09,0,0,0,211,170.74Z"/><path class="cls-2" d="M483.37,69.78c-9.75-15.89-25.7-28.67-47.43-38a187.65,187.65,0,0,0-37.39-11.13,209.54,209.54,0,0,0-86,1.61,170.38,170.38,0,0,0-43.28,15.83c-13.23,7.11-23.63,16.19-30.92,27a71.67,71.67,0,0,0-8.35,17,61.73,61.73,0,0,0-3,19.55c0,9,2.22,16.64,6.62,22.57a37.56,37.56,0,0,0,17.07,12.86,58.29,58.29,0,0,0,21,3.9A55.39,55.39,0,0,0,282,140c3.36-.65,6.61-1.42,9.64-2.29l.16-.05a6.26,6.26,0,0,0,4.64-6,4.54,4.54,0,0,0-4.64-4.63,4.77,4.77,0,0,0-2.16.51h-.05a48,48,0,0,1-15.13,2.64,32.82,32.82,0,0,1-16.47-4A19.06,19.06,0,0,1,249,114.92a24,24,0,0,1-1.08-4.86,47.83,47.83,0,0,1-.29-5.23,55.62,55.62,0,0,1,6.06-24.42c4.08-8.37,8.74-15.09,13.81-20,10.05-9.45,23.31-17.06,39.41-22.63a154.37,154.37,0,0,1,50.57-8.46,195.2,195.2,0,0,1,36.93,3.56,125.62,125.62,0,0,1,33.17,11.15c15.79,8,27.2,18.41,33.92,31a85.7,85.7,0,0,1,10.25,40.85,118,118,0,0,1-9,44.23A153.92,153.92,0,0,1,438.26,201a116.65,116.65,0,0,1-34.76,28.68,138.81,138.81,0,0,1-33.26,12.09,170.42,170.42,0,0,1-39,4.47,144.62,144.62,0,0,1-28.18-2.75c-2.58-.6-5.47-1.31-8.83-2.17-1.15-.3-2.29-.63-3.41-1,1.22-1.41,2.43-2.83,3.61-4.28,2.48-3,4.83-6.19,7-9.42a247.61,247.61,0,0,0,21.6-36.82c6-12.61,11.9-25.54,17.55-38.42s11.84-25.44,18.46-37.54a206.69,206.69,0,0,1,23.5-34.17C393.7,66.58,404.24,60,413.89,60h3a1.89,1.89,0,0,1,.9.21l.38.19.42.1A5.28,5.28,0,0,0,425.05,57a5.16,5.16,0,0,0-.17-4.3,5.08,5.08,0,0,0-3.26-2.53,35.37,35.37,0,0,0-10.25-1.42c-6.73,0-13.83,2-21.06,5.8a100.84,100.84,0,0,0-29.56,23.47A216.36,216.36,0,0,0,336.49,112c-7.29,12.46-14.28,25.43-20.79,38.55s-12.91,26.09-18.93,38.33a314.15,314.15,0,0,1-18.33,32.65c-1.48,2.1-2.92,4.24-4.3,6.36q-1,1.49-2,3a59.25,59.25,0,0,1-11-10.94,26,26,0,0,1-5.33-16.34,35.88,35.88,0,0,1,1.71-10.78l0-.15a17.36,17.36,0,0,1,6.67-9.47,19,19,0,0,1,11.24-4c1.63,0,3.76.25,4.6,1.45l.2.28.24.24c1.61,1.62,4.45,2.23,7.18-.1a6.3,6.3,0,0,0,2.5-4.61v-1.84l-1-1.14c-4.15-4.65-11-7-20.34-7a38.76,38.76,0,0,0-8.26.88,26,26,0,0,0-8,3.17c-7.79,4.72-12.95,11.22-15.31,19.27a34.93,34.93,0,0,0-1.44,10.32c0,9.38,3.36,18,10,25.5a92.41,92.41,0,0,0,17.88,15.72,103.93,103.93,0,0,1-16.23,14.17,38.33,38.33,0,0,1-22.77,7.16,42.93,42.93,0,0,1-10-1.44,17.93,17.93,0,0,1-7.09-4.54c-2.37-2.28-2.54-4-2.37-5.08a5,5,0,0,0-.47-4.57,4.78,4.78,0,0,0-4-2,7.12,7.12,0,0,0-5.61,3,13.34,13.34,0,0,0-2.8,8.86A14.4,14.4,0,0,0,200,270.11a39.75,39.75,0,0,0,13.85,4.57,83.43,83.43,0,0,0,10.48,1,66.29,66.29,0,0,0,17-2.18,90.63,90.63,0,0,0,15.74-5.81,80.15,80.15,0,0,0,13.79-8.8c3.44-2.74,6.81-5.55,10.05-8.37a74.18,74.18,0,0,0,7.6,2.76c3.23,1,6.29,1.79,9.12,2.44a196.43,196.43,0,0,0,20.94,3.38,204.53,204.53,0,0,0,21.55,1.13,200.15,200.15,0,0,0,37.49-3.54A156.2,156.2,0,0,0,412.08,246,146.93,146.93,0,0,0,457,214.36,153.21,153.21,0,0,0,487.09,170,121.44,121.44,0,0,0,498,120.6,96,96,0,0,0,483.37,69.78Z"/></g></g></svg>